<?xml version="1.0" encoding="UTF-8" standalone="no"?>
<svg
   viewBox="0 0 2304 1152"
   width="24in"
   height="12in"
   version="1.1"
   id="svg885"
   sodipodi:docname="Acrylic Front Panel Right copy.svg"
   inkscape:version="1.1.1 (3bf5ae0d25, 2021-09-20)"
   xmlns:inkscape="http://www.inkscape.org/namespaces/inkscape"
   xmlns:sodipodi="http://sodipodi.sourceforge.net/DTD/sodipodi-0.dtd"
   xmlns="http://www.w3.org/2000/svg"
   xmlns:svg="http://www.w3.org/2000/svg">
  <sodipodi:namedview
     id="namedview887"
     pagecolor="#ffffff"
     bordercolor="#999999"
     borderopacity="1"
     inkscape:pageshadow="0"
     inkscape:pageopacity="0"
     inkscape:pagecheckerboard="0"
     showgrid="false"
     units="in"
     inkscape:zoom="0.37104027"
     inkscape:cx="1187.2027"
     inkscape:cy="817.9705"
     inkscape:window-width="1920"
     inkscape:window-height="1051"
     inkscape:window-x="-9"
     inkscape:window-y="-9"
     inkscape:window-maximized="1"
     inkscape:current-layer="g1096"
     inkscape:document-units="in" />
  <desc
     id="desc824">Acrylic Front Panel Right.DXF - scale = 1.0, origin = (0.0, 0.0), method = file</desc>
  <defs
     id="defs839">
    <marker
       id="DistanceX"
       orient="auto"
       refX="0"
       refY="0"
       style="overflow:visible">
      <path
         d="M 3,-3 -3,3 M 0,-5 V 5"
         style="stroke:#000000;stroke-width:0.5"
         id="path826" />
    </marker>
    <pattern
       id="Hatch"
       patternUnits="userSpaceOnUse"
       width="8"
       height="8"
       x="0"
       y="0">
      <path
         d="M8 4 l-4,4"
         stroke="#000000"
         stroke-width="0.25"
         linecap="square"
         id="path829" />
      <path
         d="M6 2 l-4,4"
         stroke="#000000"
         stroke-width="0.25"
         linecap="square"
         id="path831" />
      <path
         d="M4 0 l-4,4"
         stroke="#000000"
         stroke-width="0.25"
         linecap="square"
         id="path833" />
    </pattern>
    <symbol
       id="*Model_Space" />
    <symbol
       id="*Paper_Space" />
    <symbol
       id="*Paper_Space0" />
    <marker
       id="DistanceX-9"
       orient="auto"
       refX="0.0"
       refY="0.0"
       style="overflow:visible">
      <path
         d="M 3,-3 L -3,3 M 0,-5 L  0,5"
         style="stroke:#000000; stroke-width:0.5"
         id="path1057" />
    </marker>
    <pattern
       id="Hatch-9"
       patternUnits="userSpaceOnUse"
       width="8"
       height="8"
       x="0"
       y="0">
      <path
         d="M8 4 l-4,4"
         stroke="#000000"
         stroke-width="0.25"
         linecap="square"
         id="path1060" />
      <path
         d="M6 2 l-4,4"
         stroke="#000000"
         stroke-width="0.25"
         linecap="square"
         id="path1062" />
      <path
         d="M4 0 l-4,4"
         stroke="#000000"
         stroke-width="0.25"
         linecap="square"
         id="path1064" />
    </pattern>
    <symbol
       id="*Model_Space-0" />
    <symbol
       id="*Paper_Space-3" />
    <symbol
       id="*Paper_Space0-8" />
  </defs>
  <g
     inkscape:groupmode="layer"
     inkscape:label="0"
     id="g883">
    <g
       inkscape:label="0"
       id="g1096"
       transform="translate(1016.0622,-786.78392)">
      <path
         d="m 58.378401,1162.9561 a 6.615,6.615 0 1 0 0,13.23 6.615,6.615 0 1 0 0,-13.23 z"
         style="fill:none;stroke:#000000;stroke-width:0.9;stroke-linecap:round"
         id="path1072" />
      <path
         d="m 215.9091,1418.7561 a 6.615,6.615 0 1 0 0,13.23 6.615,6.615 0 1 0 0,-13.23 z"
         style="fill:none;stroke:#000000;stroke-width:0.9;stroke-linecap:round"
         id="path1074" />
      <path
         d="m 215.9091,1162.9561 a 6.615,6.615 0 1 0 0,13.23 6.615,6.615 0 1 0 0,-13.23 z"
         style="fill:none;stroke:#000000;stroke-width:0.9;stroke-linecap:round"
         id="path1076" />
      <path
         d="m 58.378401,1418.7561 a 6.615,6.615 0 1 0 0,13.23 6.615,6.615 0 1 0 0,-13.23 z"
         style="fill:none;stroke:#000000;stroke-width:0.9;stroke-linecap:round"
         id="path1078" />
      <path
         style="fill:none;stroke:#000000;stroke-width:0.9;stroke-linecap:round"
         d="M -940.02165,1921.0961 H 1214.3141"
         id="path1080" />
      <path
         style="fill:none;stroke:#000000;stroke-width:0.9;stroke-linecap:round"
         d="m 1214.3141,1921.0961 v -831.5"
         id="path1082" />
      <path
         style="fill:none;stroke:#000000;stroke-width:0.9;stroke-linecap:round"
         d="M 1214.3141,1089.5961 H -940.02165"
         id="path1084" />
      <path
         style="fill:none;stroke:#000000;stroke-width:0.9;stroke-linecap:round"
         d="m -940.02165,1089.5961 v 831.5"
         id="path1086" />
    </g>
  </g>
</svg>
